<svg width="16" height="16" viewBox="0 0 16 16" fill="none" xmlns="http://www.w3.org/2000/svg">
<path d="M0 14.5V8.5H6V14.5H0ZM1.5 13H4.5V10H1.5V13ZM2.75 6L7 -1L11.25 6H2.75ZM5.41667 4.5H8.58333L7 1.89583L5.41667 4.5ZM15.6458 16.7083L13.3958 14.4583C13.1228 14.6389 12.827 14.7743 12.5085 14.8646C12.1901 14.9549 11.8553 15 11.5042 15C10.5292 15 9.70139 14.6597 9.02083 13.9792C8.34028 13.2986 8 12.4722 8 11.5C8 10.5278 8.34028 9.70139 9.02083 9.02083C9.70139 8.34028 10.5278 8 11.5 8C12.4722 8 13.2986 8.34028 13.9792 9.02083C14.6597 9.70139 15 10.5278 15 11.5C15 11.8424 14.9532 12.1748 14.8596 12.4973C14.766 12.8198 14.6322 13.1193 14.4583 13.3958L16.7083 15.6458L15.6458 16.7083ZM11.4952 13.5C12.054 13.5 12.5278 13.3072 12.9167 12.9215C13.3056 12.5356 13.5 12.0634 13.5 11.5048C13.5 10.946 13.3072 10.4722 12.9215 10.0833C12.5356 9.69444 12.0634 9.5 11.5048 9.5C10.946 9.5 10.4722 9.69285 10.0833 10.0785C9.69444 10.4644 9.5 10.9366 9.5 11.4952C9.5 12.054 9.69285 12.5278 10.0785 12.9167C10.4644 13.3056 10.9366 13.5 11.4952 13.5Z" fill="#727272"/>
</svg>
