<svg width="143" height="32" viewBox="0 0 143 32" fill="none" xmlns="http://www.w3.org/2000/svg">
<path d="M60.367 0H2.37043C1.06128 0 0 1.06602 0 2.38103V23.3342C0 24.6492 1.06128 25.7152 2.37043 25.7152H60.367C61.6761 25.7152 62.7374 24.6492 62.7374 23.3342V2.38103C62.7374 1.06602 61.6761 0 60.367 0Z" fill="#293160"/>
<path d="M3.9729 18.2838H9.30014C9.62427 18.3122 9.92023 18.298 10.1879 18.2414C10.4557 18.1706 10.6883 18.0715 10.8856 17.9441C11.0829 17.8167 11.245 17.6469 11.3718 17.4345C11.4987 17.2222 11.5832 16.9673 11.6255 16.6701C11.6255 16.4153 11.5832 16.1746 11.4987 15.9481C11.4141 15.7216 11.2873 15.5022 11.1181 15.2898C10.949 15.0775 10.7376 14.8793 10.4839 14.6952C10.2302 14.5112 9.94134 14.3343 9.61721 14.1644C9.5608 14.1361 9.50446 14.1078 9.44812 14.0795C9.39171 14.0512 9.33537 14.0229 9.27896 13.9945C9.22262 13.9662 9.16621 13.9379 9.10987 13.9096C9.05346 13.8813 8.99712 13.853 8.94071 13.8247L8.89842 13.8035L8.8562 13.761C8.26428 13.492 7.69347 13.2018 7.14386 12.8903C6.60831 12.5789 6.09392 12.2533 5.60066 11.9136C5.12149 11.5738 4.75507 11.1775 4.50139 10.7245C4.26181 10.2714 4.14202 9.76183 4.14202 9.19556V9.11068V9.04692V9.00444V8.94076C4.14202 8.41697 4.21249 7.94984 4.35341 7.5393C4.50844 7.12878 4.74098 6.78903 5.05103 6.52006C5.36108 6.23693 5.68521 6.00336 6.02345 5.81932C6.36168 5.63529 6.72107 5.50081 7.10158 5.41588C7.15795 5.40171 7.21433 5.39464 7.27069 5.39464C7.32707 5.38048 7.38344 5.36633 7.4398 5.35217C7.46797 5.35217 7.49622 5.35217 7.52438 5.35217C7.55255 5.33802 7.58778 5.32385 7.63007 5.3097C7.65824 5.3097 7.68641 5.3097 7.71465 5.3097C7.74282 5.29554 7.77099 5.28847 7.79916 5.28847L12.9573 5.24599H13.8029V7.09339H8.983C8.68704 7.1217 8.41932 7.17832 8.1797 7.26326C7.9542 7.3482 7.75695 7.47562 7.58778 7.64546C7.41867 7.81538 7.29184 7.99232 7.20728 8.17635C7.12272 8.36038 7.06635 8.5515 7.03816 8.74964L7.01702 8.8346V8.94076C7.01702 9.08231 7.02406 9.20975 7.03816 9.323C7.06635 9.43626 7.10862 9.54951 7.165 9.66277C7.22137 9.76184 7.29184 9.85381 7.3764 9.93877C7.46099 10.0237 7.55255 10.0945 7.65118 10.1511C7.97538 10.3776 8.28539 10.5829 8.58135 10.7669C8.89143 10.951 9.18033 11.1137 9.44812 11.2553C9.72996 11.3969 9.99775 11.5384 10.2514 11.68C10.5051 11.8074 10.7588 11.9348 11.0124 12.0622C11.0829 12.1047 11.1463 12.1471 11.2027 12.1896C11.2732 12.2179 11.3366 12.2463 11.393 12.2746C11.4211 12.2887 11.4493 12.31 11.4775 12.3382C11.5198 12.3524 11.5621 12.3665 11.6043 12.3807C11.6325 12.409 11.6607 12.4303 11.6889 12.4444C11.7311 12.4586 11.7664 12.4728 11.7946 12.4869C11.8369 12.5152 11.8791 12.5506 11.9214 12.593C11.9778 12.6214 12.0342 12.6497 12.0906 12.678C12.1329 12.7063 12.1821 12.7417 12.2386 12.7842C12.2949 12.8125 12.3513 12.8408 12.4076 12.8691C12.6613 13.039 12.9009 13.2372 13.1264 13.4637C13.366 13.6902 13.5915 13.945 13.8029 14.2281C14.0142 14.5112 14.1763 14.8298 14.2891 15.1836C14.4018 15.5376 14.4582 15.9198 14.4582 16.3303C14.4582 16.4294 14.4512 16.5356 14.4371 16.6489C14.4371 16.762 14.43 16.8753 14.4159 16.9885C14.4018 17.1018 14.3877 17.2222 14.3737 17.3496C14.3595 17.4628 14.3384 17.576 14.3102 17.6893C14.2257 18.0007 14.0988 18.298 13.9297 18.5811C13.7606 18.8643 13.5421 19.1332 13.2744 19.388C13.0066 19.6428 12.6543 19.8339 12.2174 19.9614C11.7946 20.0746 11.2802 20.1312 10.6742 20.1312H9.82859H9.74401H9.6595H9.55381H9.46923H3.9729V18.2838ZM18.5793 16.7975V7.43313H19.4249H21.412V9.93877H25.2594V11.765H21.412V16.9461C21.412 17.1443 21.4261 17.3212 21.4543 17.477C21.4825 17.6327 21.5248 17.7813 21.5811 17.9229C21.6234 18.0361 21.722 18.1281 21.8771 18.199C22.0321 18.2556 22.2435 18.298 22.5113 18.3263L24.2448 18.2838H25.0903V20.1312H22.5958H22.5113L22.4479 20.1525H21.6023H21.5177H21.4543C20.9752 20.1525 20.5594 20.0817 20.207 19.9401C19.8547 19.7986 19.5658 19.5791 19.3403 19.2819C19.1148 18.9846 18.9387 18.6661 18.8118 18.3263C18.699 17.9866 18.6286 17.6327 18.6004 17.2646C18.5864 17.2363 18.5793 17.208 18.5793 17.1797C18.5793 17.1372 18.5793 17.0947 18.5793 17.0523C18.5793 17.0239 18.5793 16.9956 18.5793 16.9673C18.5793 16.9249 18.5793 16.8824 18.5793 16.8399V16.7975ZM36.3598 20.1312V14.2706C36.3598 13.9591 36.2964 13.6548 36.1695 13.3575C36.0568 13.0461 35.8806 12.7559 35.6411 12.4869C35.4437 12.2463 35.1759 12.0622 34.8377 11.9348C34.4995 11.7932 34.0908 11.7012 33.6116 11.6588C33.5975 11.6588 33.5764 11.6658 33.5482 11.68C33.5341 11.68 33.5129 11.68 33.4848 11.68C33.4425 11.68 33.4002 11.6871 33.358 11.7012C33.3297 11.7012 33.2875 11.7083 33.2311 11.7225C33.1043 11.7366 32.9774 11.765 32.8505 11.8074C32.7238 11.8498 32.5969 11.9065 32.4701 11.9773C32.2446 12.0763 32.0261 12.2179 31.8148 12.4019C31.6033 12.5718 31.399 12.7771 31.2017 13.0178C31.0185 13.2443 30.8705 13.5274 30.7577 13.8671C30.645 14.1927 30.5745 14.5679 30.5463 14.9925C30.5463 15.5588 30.6239 16.0543 30.7789 16.4789C30.9339 16.8895 31.1664 17.2363 31.4765 17.5194C31.8006 17.7884 32.1318 18.0078 32.4701 18.1777C32.8224 18.3334 33.1888 18.4325 33.5693 18.475C33.668 18.4608 33.7596 18.4467 33.8441 18.4325C33.9287 18.4042 34.0133 18.3759 34.0979 18.3476C34.1683 18.3192 34.2317 18.2909 34.2881 18.2626C34.3585 18.2344 34.429 18.206 34.4995 18.1777C34.5558 18.1352 34.6192 18.0927 34.6897 18.0503C34.7602 18.0078 34.8236 17.9583 34.88 17.9017C34.9504 17.8592 35.0139 17.8096 35.0702 17.753C35.1407 17.6823 35.2112 17.6185 35.2816 17.5619C35.3521 17.4911 35.4226 17.4274 35.4931 17.3708C35.5635 17.3 35.634 17.2292 35.7045 17.1585L36.55 17.1372V19.473L36.5078 19.5155V19.5367C36.3387 19.6641 36.1624 19.7774 35.9792 19.8764C35.796 19.9614 35.6058 20.0393 35.4085 20.11C35.2112 20.1666 34.9716 20.2091 34.6897 20.2374C34.4079 20.2799 34.0837 20.3012 33.7173 20.3012H32.8717H32.8083H32.7449H32.6604H32.5969C31.9486 20.3012 31.3426 20.1879 30.7789 19.9614C30.2293 19.7207 29.7219 19.3597 29.2568 18.8784C28.7918 18.383 28.4394 17.8167 28.1999 17.1797C27.9744 16.5285 27.8616 15.7995 27.8616 14.9925C27.8616 14.2848 27.9744 13.6265 28.1999 13.0178C28.4254 12.409 28.7636 11.8498 29.2145 11.3402C29.6655 10.8306 30.2222 10.4484 30.8846 10.1936C31.547 9.93877 32.315 9.81141 33.1888 9.81141L34.0344 9.79013C34.8659 9.80431 35.6058 9.92466 36.2541 10.1511C36.9023 10.3776 37.445 10.7174 37.8819 11.1704C38.3328 11.6234 38.664 12.1047 38.8754 12.6143C39.1009 13.1098 39.2136 13.6265 39.2136 14.1644V20.1312H38.368H36.3598ZM43.1379 20.1312V9.0894C43.1379 8.57979 43.1872 8.13387 43.2858 7.75162C43.3986 7.35528 43.5607 7.02968 43.7721 6.77487C43.9834 6.52006 44.2089 6.30771 44.4485 6.13784C44.6881 5.95381 44.9418 5.81224 45.2096 5.71315C45.28 5.68484 45.3434 5.6636 45.3998 5.64945C45.4562 5.63529 45.5196 5.62114 45.59 5.60698C45.6464 5.59283 45.7028 5.57867 45.7592 5.56451C45.8297 5.55036 45.8931 5.5362 45.9495 5.52205C46.0763 5.49373 46.1961 5.47957 46.3088 5.47957C46.4216 5.46542 46.5273 5.45834 46.6259 5.45834L48.296 5.41588H49.1416V7.26326H47.8097C47.387 7.29157 47.0346 7.36235 46.7528 7.47562C46.485 7.57469 46.2947 7.73042 46.182 7.94274C46.0692 8.15507 45.9776 8.37449 45.9072 8.60099C45.8508 8.8275 45.8226 9.0682 45.8226 9.323C45.8226 9.37959 45.8226 9.43626 45.8226 9.49285C45.8226 9.53533 45.8226 9.57781 45.8226 9.62029C45.8226 9.67688 45.8226 9.72645 45.8226 9.76893C45.8226 9.81141 45.8226 9.85381 45.8226 9.89629V10.0025V10.1299L47.9577 10.1087H48.8033V11.9348H45.8226V20.1312H44.977H43.1379ZM51.9406 20.1312V9.0894C51.9406 8.57979 51.9899 8.13387 52.0885 7.75162C52.2013 7.35528 52.3634 7.02968 52.5747 6.77487C52.7862 6.52006 53.0116 6.30771 53.2512 6.13784C53.4908 5.95381 53.7445 5.81224 54.0122 5.71315C54.0827 5.68484 54.1462 5.6636 54.2025 5.64945C54.2589 5.63529 54.3223 5.62114 54.3928 5.60698C54.4491 5.59283 54.5055 5.57867 54.5619 5.56451C54.6323 5.55036 54.6958 5.5362 54.7521 5.52205C54.879 5.49373 54.9988 5.47957 55.1115 5.47957C55.2243 5.46542 55.3299 5.45834 55.4286 5.45834L57.0986 5.41588H57.9442V7.26326H56.6124C56.1897 7.29157 55.8374 7.36235 55.5554 7.47562C55.2877 7.57469 55.0975 7.73042 54.9847 7.94274C54.872 8.15507 54.7803 8.37449 54.7099 8.60099C54.6535 8.8275 54.6254 9.0682 54.6254 9.323C54.6254 9.37959 54.6254 9.43626 54.6254 9.49285C54.6254 9.53533 54.6254 9.57781 54.6254 9.62029C54.6254 9.67688 54.6254 9.72645 54.6254 9.76893C54.6254 9.81141 54.6254 9.85381 54.6254 9.89629V10.0025V10.1299L56.7604 10.1087H57.606V11.9348H54.6254V20.1312H53.7798H51.9406Z" fill="white"/>
<path d="M69.3768 20.1312V9.76893C69.3768 9.72645 69.3768 9.67688 69.3768 9.62029C69.3768 9.54951 69.3768 9.48576 69.3768 9.42917C69.3768 9.35839 69.3839 9.28762 69.3979 9.21684C69.4121 9.14607 69.4262 9.07529 69.4402 9.00444C69.5107 8.50902 69.6517 8.04182 69.8631 7.60298C70.0886 7.15001 70.3915 6.71825 70.772 6.30772C71.1385 5.89719 71.6106 5.57868 72.1884 5.35218C72.7662 5.12567 73.4427 4.9912 74.2178 4.94872L75.0631 4.92749C75.6837 4.94165 76.2612 5.03366 76.7971 5.20353C77.3463 5.37341 77.854 5.62114 78.3192 5.94674C78.7838 6.28648 79.1294 6.71117 79.3546 7.22079C79.5946 7.71624 79.7143 8.2967 79.7143 8.96204C79.7143 9.42917 79.6861 9.82552 79.6296 10.1511C79.5872 10.4768 79.5099 10.7386 79.3969 10.9368C79.2981 11.135 79.1643 11.319 78.9956 11.4889C78.8402 11.6588 78.6641 11.8215 78.4671 11.9773L78.34 12.041L78.2129 12.1259C78.5935 12.2817 78.925 12.4657 79.2067 12.678C79.4884 12.8762 79.7143 13.1098 79.883 13.3787C80.0525 13.6477 80.1863 13.9166 80.2851 14.1856C80.3832 14.4546 80.4538 14.7306 80.4962 15.0138C80.4962 15.0421 80.4962 15.0704 80.4962 15.0987C80.4962 15.1271 80.5036 15.1554 80.5177 15.1836C80.5177 15.2119 80.5177 15.2403 80.5177 15.2686C80.5177 15.2969 80.5177 15.3252 80.5177 15.3536C80.5177 15.3819 80.5177 15.4102 80.5177 15.4385C80.5177 15.4668 80.5244 15.488 80.5386 15.5022C80.5386 15.5305 80.5386 15.5588 80.5386 15.5871C80.5386 15.6013 80.5386 15.6225 80.5386 15.6509C80.5386 15.6791 80.5386 15.7074 80.5386 15.7357C80.5386 15.764 80.5386 15.7924 80.5386 15.8207C80.5386 15.8349 80.5386 15.849 80.5386 15.8632C80.5386 15.8773 80.5386 15.8844 80.5386 15.8844C80.5386 15.8986 80.5386 15.9127 80.5386 15.9269C80.5527 15.941 80.5601 15.9552 80.5601 15.9693C80.5601 16.578 80.4613 17.1301 80.2636 17.6256C80.0666 18.1211 79.7708 18.567 79.3761 18.9634C78.9815 19.3597 78.5444 19.657 78.065 19.8552C77.6005 20.0393 77.0854 20.1312 76.5221 20.1312H75.6763C75.6621 20.1312 75.648 20.1312 75.6339 20.1312C75.6198 20.1312 75.6131 20.1312 75.6131 20.1312C75.599 20.1312 75.5848 20.1312 75.5707 20.1312C75.5566 20.1312 75.5425 20.1312 75.5284 20.1312C75.5142 20.1312 75.5001 20.1312 75.486 20.1312C75.4719 20.1312 75.4652 20.1312 75.4652 20.1312C75.4511 20.1312 75.4369 20.1312 75.4228 20.1312C75.4087 20.1312 75.3946 20.1312 75.3805 20.1312H72.2096V18.1352H74.8728C75.2392 18.1636 75.5848 18.1352 75.9089 18.0503C76.2471 17.9512 76.557 17.8096 76.8394 17.6256C77.1211 17.4416 77.3322 17.201 77.4734 16.9037C77.628 16.6064 77.7061 16.2453 77.7061 15.8207C77.7061 15.3677 77.628 14.9784 77.4734 14.6528C77.3181 14.3272 77.0929 14.0724 76.7971 13.8884C76.5013 13.6902 76.1623 13.5486 75.7818 13.4637C75.402 13.3646 74.9858 13.3151 74.5346 13.3151L72.2096 13.2726V11.4464H74.0487C74.5138 11.4748 74.9152 11.4464 75.2534 11.3615C75.5923 11.2624 75.8665 11.1208 76.0784 10.9368C76.2894 10.7528 76.4589 10.5616 76.5853 10.3635C76.7123 10.1653 76.7971 9.95296 76.8394 9.72645C76.8394 9.71227 76.8394 9.69816 76.8394 9.68397C76.8394 9.66979 76.8461 9.64858 76.8602 9.62029C76.8602 9.6061 76.8602 9.59199 76.8602 9.57781C76.8602 9.54951 76.8602 9.52824 76.8602 9.51413C76.8602 9.49994 76.8602 9.48576 76.8602 9.47165C76.8602 9.45746 76.8677 9.43626 76.8811 9.40797C76.8811 9.39378 76.8811 9.3796 76.8811 9.36549C76.8811 9.33712 76.8811 9.31591 76.8811 9.30173C76.8811 8.93367 76.8179 8.601 76.6915 8.30371C76.5786 7.99232 76.4024 7.72333 76.1623 7.49682C75.9795 7.29865 75.7543 7.14293 75.486 7.02969C75.2325 6.91643 74.9434 6.84566 74.6194 6.81734C74.2813 6.84566 73.9853 6.92351 73.7316 7.05092C73.478 7.17832 73.2665 7.3482 73.0974 7.56058C72.9001 7.81538 72.7451 8.0843 72.6324 8.36747C72.5196 8.65057 72.4492 8.94076 72.4209 9.23805C72.4069 9.28053 72.3998 9.32301 72.3998 9.36549C72.3998 9.39378 72.3998 9.42208 72.3998 9.45037C72.3998 9.47874 72.3998 9.51413 72.3998 9.55653C72.3998 9.5849 72.3998 9.6132 72.3998 9.64149V20.1312H71.5542H69.3768ZM84.8219 9.93878H86.6614V10.1299C86.732 10.1016 86.7952 10.0662 86.8517 10.0237C86.9223 9.98126 86.9929 9.94587 87.0627 9.91757C87.2322 9.83261 87.4225 9.76893 87.6336 9.72645C87.8454 9.66979 88.0706 9.64149 88.3099 9.64149L88.987 9.59901H89.8321V11.4464H89.3252C88.9305 11.5172 88.5923 11.6234 88.3099 11.765C88.0282 11.9065 87.7889 12.0834 87.5912 12.2958C87.4084 12.5082 87.253 12.7346 87.1267 12.9753C87.0137 13.2018 86.9223 13.4353 86.8517 13.676C86.7952 13.8601 86.7528 14.037 86.7246 14.2069C86.6963 14.3768 86.6822 14.5396 86.6822 14.6952C86.6681 14.8652 86.6614 15.0138 86.6614 15.1412C86.6614 15.2686 86.6614 15.389 86.6614 15.5022V20.1312H85.8156H83.9768V9.93878H84.8219ZM110.418 5.41588H112.427V14.95V15.035L112.448 15.12V15.1836V15.2686C112.448 15.4243 112.434 15.5871 112.406 15.757C112.392 15.9269 112.363 16.1109 112.321 16.3091C112.279 16.4931 112.23 16.6913 112.173 16.9037C112.117 17.1018 112.046 17.3 111.961 17.4982C111.793 17.8804 111.574 18.2414 111.307 18.5811C111.052 18.9209 110.75 19.2465 110.398 19.5579C110.045 19.8693 109.629 20.0958 109.15 20.2374C108.671 20.3931 108.128 20.471 107.522 20.471H106.677H106.55H106.423C105.578 20.4285 104.845 20.2941 104.224 20.0676C103.604 19.841 103.097 19.5084 102.702 19.0695C102.308 18.6307 101.997 18.1706 101.772 17.6893C101.547 17.208 101.399 16.7055 101.329 16.1817C101.314 16.1109 101.3 16.0401 101.286 15.9693C101.272 15.8986 101.265 15.8278 101.265 15.757C101.265 15.6862 101.265 15.6154 101.265 15.5446C101.265 15.4738 101.265 15.4031 101.265 15.3323V15.2473V15.1624V15.0987V15.0138C101.251 14.3626 101.329 13.7751 101.497 13.2513C101.667 12.7134 101.92 12.2463 102.258 11.8498C102.597 11.4535 102.956 11.1208 103.337 10.8518C103.717 10.5829 104.105 10.3776 104.499 10.2361C104.612 10.1936 104.724 10.1582 104.837 10.1299C104.965 10.0874 105.092 10.0591 105.218 10.0449C105.331 10.0166 105.444 10.0025 105.556 10.0025C105.683 9.98835 105.803 9.98126 105.916 9.98126L106.761 9.96005C107.212 9.97416 107.6 10.0025 107.924 10.0449C108.262 10.0732 108.537 10.1228 108.748 10.1936C108.959 10.2502 109.15 10.321 109.319 10.4059C109.489 10.4768 109.637 10.5545 109.763 10.6395V12.6143H108.918C108.89 12.6143 108.854 12.6072 108.812 12.5931C108.783 12.5648 108.748 12.5436 108.706 12.5294C108.692 12.5152 108.671 12.5011 108.643 12.4869C108.615 12.4728 108.593 12.4586 108.58 12.4444C108.551 12.4444 108.523 12.4374 108.495 12.4232C108.481 12.409 108.459 12.3949 108.431 12.3807C108.291 12.31 108.128 12.2463 107.945 12.1896C107.762 12.1188 107.564 12.0552 107.353 11.9985C107.283 11.9702 107.212 11.949 107.141 11.9348C107.086 11.9206 107.022 11.9065 106.951 11.8923C106.881 11.8782 106.811 11.8711 106.74 11.8711C106.684 11.8569 106.62 11.8428 106.55 11.8286C106.226 11.8852 105.916 11.9985 105.62 12.1684C105.323 12.3241 105.035 12.5436 104.753 12.8267C104.485 13.1098 104.274 13.4495 104.119 13.8459C103.978 14.2281 103.908 14.6669 103.908 15.1624V15.2261L103.928 15.3111V15.396V15.4809C103.985 15.9764 104.076 16.4011 104.203 16.755C104.345 17.0947 104.521 17.3779 104.732 17.6044C104.943 17.8309 105.161 18.0149 105.387 18.1565C105.613 18.298 105.852 18.4042 106.106 18.475C106.218 18.5175 106.331 18.5528 106.444 18.5811C106.571 18.6094 106.691 18.6307 106.803 18.6449C106.817 18.6449 106.825 18.6449 106.825 18.6449C106.839 18.6449 106.853 18.6449 106.867 18.6449C106.881 18.6449 106.895 18.6449 106.91 18.6449C107.36 18.6165 107.748 18.4963 108.072 18.2839C108.41 18.0715 108.685 17.7672 108.896 17.3708C109.122 16.9461 109.291 16.4789 109.404 15.9693C109.516 15.4597 109.573 14.9076 109.573 14.3131V5.41588H110.418ZM119.036 22.8068C119.219 22.8634 119.395 22.913 119.564 22.9554C119.733 22.9979 119.896 23.0404 120.05 23.0828C120.205 23.1112 120.361 23.1395 120.515 23.1678C120.685 23.2102 120.839 23.2385 120.981 23.2527C121.023 23.2527 121.065 23.2527 121.107 23.2527C121.149 23.2527 121.199 23.2598 121.256 23.2739C121.297 23.2739 121.34 23.2739 121.382 23.2739C121.424 23.2881 121.467 23.2952 121.509 23.2952C121.537 23.2952 121.558 23.2952 121.572 23.2952C121.601 23.2952 121.622 23.2952 121.636 23.2952C122.044 23.2668 122.418 23.1819 122.756 23.0404C123.109 22.913 123.418 22.736 123.686 22.5095C124.011 22.2405 124.257 21.9291 124.426 21.5752C124.596 21.2354 124.687 20.8532 124.701 20.4285V20.3436V20.2799L124.68 20.195V20.1312V15.4597C124.68 14.8935 124.596 14.3838 124.426 13.9308C124.271 13.4637 124.032 13.0532 123.708 12.6992C123.44 12.4019 123.151 12.1684 122.841 11.9985C122.531 11.8145 122.206 11.7012 121.868 11.6588C121.488 11.7154 121.129 11.8286 120.79 11.9985C120.452 12.1684 120.121 12.4019 119.797 12.6992C119.487 12.9965 119.254 13.3787 119.099 13.8459C118.944 14.3131 118.867 14.8652 118.867 15.5022C118.867 15.9127 118.944 16.302 119.099 16.6701C119.254 17.0381 119.487 17.385 119.797 17.7106C120.078 17.9937 120.402 18.2131 120.769 18.3688C121.149 18.5245 121.566 18.6165 122.017 18.6449C122.044 18.6449 122.066 18.6449 122.08 18.6449C122.108 18.6449 122.129 18.6449 122.143 18.6449C122.256 18.6307 122.362 18.6165 122.46 18.6024C122.573 18.574 122.679 18.5387 122.777 18.4963C122.876 18.4679 122.975 18.4396 123.074 18.4113C123.186 18.3688 123.292 18.3192 123.39 18.2626C123.503 18.206 123.609 18.1423 123.708 18.0715C123.821 18.0008 123.926 17.9229 124.025 17.8379L124.87 17.8167V19.7915C124.701 19.9331 124.518 20.0464 124.321 20.1312C124.123 20.202 123.919 20.2658 123.708 20.3224C123.496 20.3648 123.264 20.4002 123.01 20.4285C122.756 20.4568 122.489 20.471 122.206 20.471H121.361C120.445 20.4285 119.655 20.2728 118.993 20.0039C118.331 19.7349 117.795 19.3456 117.387 18.8359C116.992 18.3263 116.689 17.7672 116.478 17.1585C116.28 16.5356 116.182 15.8703 116.182 15.1624C116.182 14.4546 116.266 13.8247 116.436 13.2726C116.619 12.7063 116.886 12.225 117.239 11.8286C117.591 11.4323 117.958 11.0996 118.338 10.8306C118.732 10.5475 119.141 10.3281 119.564 10.1724C119.733 10.1016 119.902 10.0449 120.072 10.0025C120.24 9.96005 120.41 9.92467 120.579 9.8963C120.748 9.868 120.91 9.8468 121.065 9.83261C121.22 9.81843 121.368 9.81141 121.509 9.81141L122.355 9.79013C123.017 9.80432 123.651 9.92467 124.257 10.1511C124.863 10.3776 125.427 10.7174 125.948 11.1704C126.484 11.6092 126.878 12.1259 127.132 12.7205C127.4 13.3009 127.534 13.945 127.534 14.6528V20.1312C127.534 20.2162 127.52 20.3365 127.491 20.4922C127.477 20.6621 127.449 20.8603 127.407 21.0868C127.364 21.3275 127.301 21.5681 127.216 21.8088C127.132 22.0494 127.02 22.3042 126.878 22.5732C126.71 22.8988 126.484 23.2031 126.202 23.4862C125.934 23.7835 125.61 24.0667 125.23 24.3356C124.849 24.6046 124.391 24.8028 123.856 24.9302C123.334 25.0718 122.728 25.1426 122.038 25.1426H121.192C120.797 25.1426 120.431 25.1284 120.092 25.1001C119.754 25.0718 119.444 25.0222 119.163 24.9515C119.021 24.9232 118.888 24.8878 118.761 24.8453C118.634 24.8169 118.515 24.7886 118.402 24.7603C118.289 24.7179 118.183 24.6754 118.084 24.6329C117.985 24.6046 117.894 24.5763 117.809 24.548L117.725 24.5055L117.683 24.4843L118.19 22.8068H119.036ZM133.297 15.4597L138.286 12.6143C138.258 12.6001 138.23 12.586 138.202 12.5719C138.173 12.5436 138.145 12.5082 138.117 12.4657C138.089 12.4374 138.054 12.4019 138.011 12.3595C137.983 12.317 137.948 12.2746 137.906 12.2321C137.863 12.2038 137.814 12.1755 137.758 12.1471C137.716 12.1047 137.673 12.0622 137.631 12.0198C137.574 11.9915 137.518 11.9631 137.462 11.9348C137.406 11.8923 137.342 11.8569 137.272 11.8286C137.173 11.7862 137.067 11.7508 136.954 11.7225C136.841 11.6942 136.715 11.6729 136.574 11.6588C136.123 11.7012 135.721 11.8215 135.369 12.0198C135.031 12.2179 134.734 12.4798 134.481 12.8055C134.199 13.1876 133.988 13.5911 133.847 14.0158C133.706 14.4404 133.635 14.8793 133.635 15.3323V15.3536V15.3748C133.635 15.7995 133.706 16.2029 133.847 16.5851C134.002 16.9532 134.22 17.3071 134.502 17.6469C134.756 17.9441 135.059 18.1777 135.411 18.3476C135.764 18.5175 136.158 18.6165 136.595 18.6449C137.046 18.6165 137.426 18.5387 137.736 18.4113C138.046 18.2697 138.286 18.0857 138.455 17.8592C138.653 17.576 138.829 17.2434 138.983 16.8612C139.153 16.4789 139.301 16.0472 139.428 15.5659V15.5234L139.449 15.4809H140.295L142.133 15.6084C142.133 15.6367 142.133 15.665 142.133 15.6933C142.133 15.7074 142.141 15.7216 142.155 15.7357C142.155 15.764 142.155 15.7853 142.155 15.7995C142.155 15.8136 142.155 15.8349 142.155 15.8632C142.155 15.8773 142.155 15.8986 142.155 15.9269C142.155 15.941 142.162 15.9552 142.176 15.9693C142.176 15.9976 142.176 16.0189 142.176 16.033C142.176 16.0472 142.176 16.0613 142.176 16.0755C142.176 16.1888 142.169 16.3091 142.155 16.4365C142.141 16.5497 142.119 16.6701 142.091 16.7975C142.078 16.8541 142.056 16.9178 142.028 16.9886C142.014 17.0593 142 17.1231 141.985 17.1797C141.957 17.2505 141.929 17.3212 141.901 17.392C141.887 17.4487 141.866 17.5123 141.838 17.5831C141.669 17.9371 141.443 18.2839 141.161 18.6236C140.88 18.9634 140.534 19.2819 140.125 19.5792C139.73 19.8764 139.266 20.0958 138.73 20.2374C138.209 20.3931 137.624 20.471 136.975 20.471H136.13C135.383 20.471 134.693 20.3577 134.058 20.1312C133.424 19.8906 132.853 19.5297 132.346 19.0483C131.825 18.5528 131.437 18.0008 131.183 17.392C130.93 16.7691 130.803 16.0826 130.803 15.3323C130.803 14.5396 130.908 13.8389 131.12 13.2301C131.331 12.6214 131.648 12.0976 132.071 11.6588C132.494 11.2199 132.938 10.8589 133.403 10.5758C133.868 10.2927 134.355 10.0874 134.861 9.96005C134.918 9.94587 134.967 9.93878 135.009 9.93878C135.066 9.92467 135.122 9.91048 135.179 9.8963C135.235 9.8963 135.284 9.8963 135.327 9.8963C135.383 9.88219 135.44 9.868 135.495 9.85382C135.608 9.83971 135.714 9.83261 135.813 9.83261C135.926 9.81843 136.031 9.81141 136.13 9.81141L136.975 9.79013C137.553 9.80432 138.089 9.8963 138.582 10.0662C139.09 10.2219 139.554 10.4626 139.977 10.7881C140.386 11.1137 140.752 11.4748 141.076 11.8711C141.415 12.2675 141.711 12.6922 141.965 13.1451L134.967 16.9461H134.122L133.297 15.4597Z" fill="#494949"/>
<path d="M33.495 8.39535C34.5847 8.39535 35.4681 7.50803 35.4681 6.41347C35.4681 5.31892 34.5847 4.4316 33.495 4.4316C32.4053 4.4316 31.522 5.31892 31.522 6.41347C31.522 7.50803 32.4053 8.39535 33.495 8.39535Z" fill="white"/>
<path d="M94.9649 30.5802L93.5416 29.2789C93.2793 29.0387 93.1403 28.6913 93.1641 28.3354L94.386 10.1479C94.3993 9.94423 94.4662 9.74773 94.5785 9.57796L94.6045 9.53929C94.8207 9.21394 95.1842 9.01849 95.5729 9.01849H96.0419C96.4053 9.01849 96.748 9.18893 96.968 9.47919L97.0267 9.55661C97.1657 9.73952 97.2474 9.95954 97.2623 10.189L98.4433 28.316C98.4671 28.6829 98.3185 29.0398 98.0405 29.2793L96.5072 30.6025C96.0612 30.9874 95.3997 30.9778 94.9649 30.5802Z" fill="#293160"/>
<path d="M97.1947 6.85455L96.881 7.79911C96.7242 8.27124 96.2849 8.58972 95.7892 8.58972C95.289 8.58972 94.846 8.26549 94.6936 7.78731L94.3911 6.8426C94.1496 6.08772 94.71 5.31532 95.4993 5.31532H96.0902C96.8847 5.31532 97.4459 6.09731 97.1947 6.85455Z" fill="#293160"/>
</svg>
