<svg width="17" height="21" viewBox="0 0 17 21" fill="none" xmlns="http://www.w3.org/2000/svg">
<path d="M7.8655 20.7402C7.36033 20.7402 6.88275 20.6338 6.43275 20.421C5.98275 20.2082 5.6065 19.9024 5.304 19.5037L0.20975 12.9055L0.579 12.5115C0.829 12.2448 1.128 12.0846 1.476 12.0307C1.824 11.9767 2.14992 12.0428 2.45375 12.2288L4.8905 13.5365V5.625C4.8905 5.4125 4.96242 5.23433 5.10625 5.0905C5.24992 4.94683 5.42808 4.875 5.64075 4.875C5.85342 4.875 6.03408 4.94683 6.18275 5.0905C6.33142 5.23433 6.40575 5.4125 6.40575 5.625V16.1845L3.40375 14.5498L6.523 18.6152C6.68717 18.8216 6.88717 18.9773 7.123 19.0825C7.359 19.1877 7.6065 19.2402 7.8655 19.2402H12.7845C13.4115 19.2402 13.9449 19.022 14.3848 18.5855C14.8244 18.1488 15.0443 17.6171 15.0443 16.9902V13.221C15.0443 12.8777 14.9282 12.5899 14.696 12.3577C14.4637 12.1256 14.1759 12.0095 13.8328 12.0095H8.7905V10.5095H13.8328C14.5859 10.5095 15.2261 10.7731 15.7533 11.3003C16.2806 11.8276 16.5443 12.4678 16.5443 13.221V16.9895C16.5443 18.0258 16.1761 18.9101 15.4398 19.6423C14.7036 20.3743 13.8185 20.7402 12.7845 20.7402H7.8655ZM5.62675 0C7.18975 0 8.51767 0.546833 9.6105 1.6405C10.7035 2.73433 11.25 4.0625 11.25 5.625C11.25 6.14 11.1841 6.6355 11.0522 7.1115C10.9206 7.5875 10.7307 8.03617 10.4827 8.4575L9.452 7.8615C9.6455 7.52817 9.79483 7.173 9.9 6.796C10.0052 6.41917 10.0577 6.02883 10.0577 5.625C10.0577 4.39367 9.62683 3.347 8.765 2.485C7.90317 1.62317 6.85667 1.19225 5.6255 1.19225C4.3945 1.19225 3.34783 1.62317 2.4855 2.485C1.62333 3.347 1.19225 4.39367 1.19225 5.625C1.19225 6.02883 1.24225 6.41917 1.34225 6.796C1.44225 7.173 1.58908 7.52492 1.78275 7.85175L0.752 8.4325C0.5045 8.02483 0.317333 7.583 0.1905 7.107C0.0634999 6.63083 0 6.13525 0 5.62025C0 4.05925 0.547083 2.73225 1.64125 1.63925C2.73525 0.546417 4.06375 0 5.62675 0ZM5.62675 2.4325C6.50892 2.4325 7.26125 2.74383 7.88375 3.3665C8.50608 3.989 8.81725 4.74058 8.81725 5.62125C8.81725 5.92492 8.78042 6.20975 8.70675 6.47575C8.63308 6.74192 8.51933 6.9955 8.3655 7.2365L7.325 6.64025C7.40833 6.49175 7.475 6.33075 7.525 6.15725C7.575 5.98392 7.6 5.8065 7.6 5.625C7.6 5.075 7.40417 4.60417 7.0125 4.2125C6.62083 3.82083 6.15 3.625 5.6 3.625C5.03983 3.625 4.56642 3.82083 4.17975 4.2125C3.79325 4.60417 3.6 5.075 3.6 5.625C3.6 5.80833 3.625 5.98633 3.675 6.159C3.725 6.33183 3.79167 6.49225 3.875 6.64025L2.84425 7.2365C2.70708 6.9955 2.60425 6.74033 2.53575 6.471C2.46708 6.20183 2.43275 5.91983 2.43275 5.625C2.43275 4.74317 2.74075 3.99067 3.35675 3.3675C3.97275 2.74417 4.72942 2.4325 5.62675 2.4325Z" fill="#D0D0D0"/>
</svg>
