<svg width="16" height="13" viewBox="0 0 16 13" fill="none" xmlns="http://www.w3.org/2000/svg">
<path d="M3.75 12.5C3.05556 12.5 2.46528 12.2569 1.97917 11.7708C1.49306 11.2847 1.25 10.6944 1.25 10H-0.5L0 8.5H1.75C1.98611 8.19444 2.27944 7.95139 2.63 7.77083C2.98042 7.59028 3.35375 7.5 3.75 7.5C4.14625 7.5 4.51958 7.59028 4.87 7.77083C5.22056 7.95139 5.51389 8.19444 5.75 8.5H9.83333L11.5833 1.5H2.5L2.66667 1C2.77778 0.694444 2.96181 0.451389 3.21875 0.270833C3.47569 0.0902778 3.76389 0 4.08333 0H13.5L12.75 3H14.5L17 6.5L16 10H15C15 10.6944 14.7569 11.2847 14.2708 11.7708C13.7847 12.2569 13.1944 12.5 12.5 12.5C11.8056 12.5 11.2153 12.2569 10.7292 11.7708C10.2431 11.2847 10 10.6944 10 10H6.25C6.25 10.6944 6.00694 11.2847 5.52083 11.7708C5.03472 12.2569 4.44444 12.5 3.75 12.5ZM11.75 7H15.2917L15.3542 6.77083L13.7292 4.5H12.375L11.75 7ZM11.5 1.83333L11.5833 1.5L9.83333 8.5L9.91667 8.16667L10.625 5.33333L11.5 1.83333ZM-1.5 7.16667L-1.125 5.66667H3L2.625 7.16667H-1.5ZM0 4.33333L0.375 2.83333H5.25L4.875 4.33333H0ZM3.75 11C4.03333 11 4.27083 10.9042 4.4625 10.7125C4.65417 10.5208 4.75 10.2833 4.75 10C4.75 9.71667 4.65417 9.47917 4.4625 9.2875C4.27083 9.09583 4.03333 9 3.75 9C3.46667 9 3.22917 9.09583 3.0375 9.2875C2.84583 9.47917 2.75 9.71667 2.75 10C2.75 10.2833 2.84583 10.5208 3.0375 10.7125C3.22917 10.9042 3.46667 11 3.75 11ZM12.5 11C12.7833 11 13.0208 10.9042 13.2125 10.7125C13.4042 10.5208 13.5 10.2833 13.5 10C13.5 9.71667 13.4042 9.47917 13.2125 9.2875C13.0208 9.09583 12.7833 9 12.5 9C12.2167 9 11.9792 9.09583 11.7875 9.2875C11.5958 9.47917 11.5 9.71667 11.5 10C11.5 10.2833 11.5958 10.5208 11.7875 10.7125C11.9792 10.9042 12.2167 11 12.5 11Z" fill="#727272"/>
</svg>
